<svg width="25" height="24" viewBox="0 0 25 24" fill="none" xmlns="http://www.w3.org/2000/svg">
<path fill-rule="evenodd" clip-rule="evenodd" d="M4.90049 4C3.575 4 2.50049 5.07452 2.50049 6.4V15.9515C2.50049 17.277 3.575 18.3515 4.90049 18.3515H8.23356V18.3518H9.67046L13.287 21.8863C13.3751 21.9724 13.4979 22.0131 13.62 21.9967C13.742 21.9802 13.8497 21.9085 13.9119 21.8021L15.9293 18.3518H16.7664V18.3515H20.0993C21.4248 18.3515 22.4993 17.277 22.4993 15.9515V6.4C22.4993 5.07452 21.4248 4 20.0993 4H4.90049ZM15.6997 17.5518V17.5515H20.0993C20.983 17.5515 21.6993 16.8352 21.6993 15.9515V6.4C21.6993 5.51635 20.983 4.8 20.0993 4.8H4.90049C4.01683 4.8 3.30049 5.51635 3.30049 6.4V15.9515C3.30049 16.8352 4.01683 17.5515 4.90049 17.5515H9.8334V17.5518H9.83347C9.93796 17.5518 10.0383 17.5927 10.113 17.6657L13.4798 20.9561L15.3545 17.7499C15.4262 17.6272 15.5576 17.5518 15.6997 17.5518ZM6.50006 8.6C6.50006 8.37909 6.67915 8.2 6.90006 8.2H16.1001C16.321 8.2 16.5001 8.37909 16.5001 8.6C16.5001 8.82091 16.321 9 16.1001 9H6.90006C6.67915 9 6.50006 8.82091 6.50006 8.6ZM6.90006 11.2C6.67915 11.2 6.50006 11.3791 6.50006 11.6C6.50006 11.8209 6.67915 12 6.90006 12H12.1001C12.321 12 12.5001 11.8209 12.5001 11.6C12.5001 11.3791 12.321 11.2 12.1001 11.2H6.90006Z" fill="#1F2124"/>
</svg>