<svg xmlns="http://www.w3.org/2000/svg" width="24" height="24" viewBox="0 0 24 24" fill="none">
<path fill-rule="evenodd" clip-rule="evenodd" d="M23 3L2 20L2.6292 20.7772L23.6292 3.77724L23 3ZM12.375 4.5C14.5452 4.5 16.391 5.03703 17.9099 5.82461L16.9487 6.58915C15.6617 5.99842 14.1377 5.61111 12.375 5.61111C9.0937 5.61111 6.63979 6.95317 5.00149 8.45116C4.18062 9.20172 3.56905 9.98773 3.16608 10.6548C2.96449 10.9885 2.81879 11.2863 2.72511 11.5292C2.62686 11.784 2.60127 11.939 2.60127 12C2.60127 12.061 2.62686 12.216 2.72511 12.4708C2.81879 12.7137 2.96449 13.0115 3.16608 13.3452C3.56905 14.0123 4.18062 14.7983 5.00149 15.5488C5.10633 15.6447 5.21451 15.7399 5.32604 15.8342L4.44432 16.5356C4.38254 16.4813 4.32175 16.4268 4.26196 16.3722C3.3621 15.5494 2.68312 14.6807 2.22573 13.9235C1.99714 13.5452 1.82021 13.1885 1.69879 12.8737C1.58195 12.5707 1.5 12.2645 1.5 12C1.5 11.7355 1.58195 11.4293 1.69879 11.1263C1.82021 10.8115 1.99714 10.4548 2.22573 10.0765C2.68312 9.31935 3.3621 8.45063 4.26196 7.62784C6.06512 5.97912 8.77339 4.5 12.375 4.5ZM12.375 7.65967C13.2404 7.65967 14.0462 7.91752 14.7209 8.36124L13.7892 9.10233C13.3628 8.89005 12.8827 8.77078 12.375 8.77078C10.6074 8.77078 9.17443 10.2165 9.17443 11.9999C9.17443 12.2443 9.20133 12.4823 9.25231 12.7111L8.32005 13.4527C8.16019 12.9985 8.07317 12.5095 8.07317 11.9999C8.07317 9.60288 9.99916 7.65967 12.375 7.65967ZM16.5213 10.8393L15.5524 11.61C15.5677 11.7378 15.5755 11.868 15.5755 11.9999C15.5755 13.7834 14.1426 15.2291 12.375 15.2291C11.9818 15.2291 11.6051 15.1576 11.2571 15.0267L10.289 15.7967C10.9068 16.143 11.6181 16.3402 12.375 16.3402C14.7508 16.3402 16.6768 14.397 16.6768 11.9999C16.6768 11.598 16.6226 11.2088 16.5213 10.8393ZM12.375 18.3889C10.7451 18.3889 9.31933 18.0578 8.09627 17.5409L7.12124 18.3164C8.58502 19.0264 10.337 19.5 12.375 19.5C15.9766 19.5 18.6849 18.0209 20.488 16.3722C21.3879 15.5494 22.0669 14.6807 22.5243 13.9235C22.7529 13.5452 22.9298 13.1885 23.0512 12.8737C23.1681 12.5707 23.25 12.2645 23.25 12C23.25 11.7355 23.1681 11.4293 23.0512 11.1263C22.9298 10.8115 22.7529 10.4548 22.5243 10.0765C22.0725 9.32858 21.4044 8.47179 20.5209 7.65795L19.6432 8.35608C19.6787 8.38769 19.7138 8.41939 19.7485 8.45116C20.5694 9.20172 21.1809 9.98773 21.5839 10.6548C21.7855 10.9885 21.9312 11.2863 22.0249 11.5292C22.1231 11.784 22.1487 11.939 22.1487 12C22.1487 12.061 22.1231 12.216 22.0249 12.4708C21.9312 12.7137 21.7855 13.0115 21.5839 13.3452C21.1809 14.0123 20.5694 14.7983 19.7485 15.5488C18.1102 17.0468 15.6563 18.3889 12.375 18.3889Z" fill="#1F2124"/>
</svg>