<svg width="9" height="15" viewBox="0 0 9 15" fill="none" xmlns="http://www.w3.org/2000/svg">
<path d="M4.384 13.096C2.25067 12.936 1.10933 11.7573 0.96 9.56H2.112C2.18667 10.328 2.40533 10.9147 2.768 11.32C3.13067 11.7253 3.66933 11.9653 4.384 12.04V7.672C3.97867 7.55467 3.57867 7.42133 3.184 7.272C2.78933 7.12267 2.43733 6.936 2.128 6.712C1.82933 6.47733 1.584 6.19467 1.392 5.864C1.21067 5.52267 1.12 5.10133 1.12 4.6C1.12 4.216 1.18933 3.85867 1.328 3.528C1.46667 3.18667 1.66933 2.888 1.936 2.632C2.21333 2.376 2.55467 2.168 2.96 2.008C3.36533 1.848 3.84 1.74667 4.384 1.704V0.2H5.376V1.704C6.42133 1.78933 7.20533 2.10933 7.728 2.664C8.26133 3.208 8.56533 3.96 8.64 4.92H7.488C7.40267 4.26933 7.2 3.768 6.88 3.416C6.56 3.05333 6.05867 2.83467 5.376 2.76V6.792C5.792 6.92 6.20267 7.05867 6.608 7.208C7.024 7.35733 7.392 7.55467 7.712 7.8C8.04267 8.03467 8.304 8.33333 8.496 8.696C8.69867 9.048 8.8 9.496 8.8 10.04C8.8 10.8933 8.51733 11.5973 7.952 12.152C7.39733 12.7067 6.53867 13.0213 5.376 13.096V14.6H4.384V13.096ZM2.272 4.6C2.272 4.87733 2.32533 5.11733 2.432 5.32C2.54933 5.512 2.704 5.68267 2.896 5.832C3.088 5.98133 3.312 6.10933 3.568 6.216C3.824 6.32267 4.096 6.424 4.384 6.52V2.76C3.65867 2.83467 3.12533 3.04267 2.784 3.384C2.44267 3.71467 2.272 4.12 2.272 4.6ZM7.648 10.04C7.648 9.74133 7.58933 9.48533 7.472 9.272C7.35467 9.048 7.18933 8.856 6.976 8.696C6.77333 8.536 6.53333 8.39733 6.256 8.28C5.97867 8.16267 5.68533 8.056 5.376 7.96V12.04C6.15467 11.9653 6.72533 11.7413 7.088 11.368C7.46133 10.9947 7.648 10.552 7.648 10.04Z" fill="#1F2124"/>
</svg>