<svg width="28" height="20" viewBox="0 0 28 20" fill="none" xmlns="http://www.w3.org/2000/svg">
<path fill-rule="evenodd" clip-rule="evenodd" d="M1.41772 10C1.41772 9.91868 1.45067 9.712 1.57716 9.37227C1.69775 9.04838 1.88532 8.65128 2.14484 8.20635C2.66361 7.31697 3.45091 6.26896 4.50766 5.26821C6.61674 3.27089 9.7758 1.48148 14 1.48148C18.2242 1.48148 21.3833 3.27089 23.4923 5.26821C24.5491 6.26896 25.3364 7.31697 25.8552 8.20635C26.1147 8.65128 26.3023 9.04838 26.4228 9.37227C26.5493 9.712 26.5823 9.91868 26.5823 10C26.5823 10.0813 26.5493 10.288 26.4228 10.6277C26.3023 10.9516 26.1147 11.3487 25.8552 11.7937C25.3364 12.683 24.5491 13.731 23.4923 14.7318C21.3833 16.7291 18.2242 18.5185 14 18.5185C9.7758 18.5185 6.61674 16.7291 4.50766 14.7318C3.45091 13.731 2.66361 12.683 2.14484 11.7937C1.88532 11.3487 1.69775 10.9516 1.57716 10.6277C1.45067 10.288 1.41772 10.0813 1.41772 10ZM14 0C9.36344 0 5.87693 1.97216 3.55563 4.17045C2.39719 5.2675 1.5231 6.4258 0.934272 7.43529C0.64 7.93979 0.412222 8.41527 0.255911 8.83511C0.105499 9.2391 0 9.6473 0 10C0 10.3527 0.105499 10.7609 0.255911 11.1649C0.412222 11.5847 0.64 12.0602 0.934272 12.5647C1.5231 13.5742 2.39719 14.7325 3.55563 15.8295C5.87693 18.0278 9.36344 20 14 20C18.6366 20 22.1231 18.0278 24.4444 15.8295C25.6028 14.7325 26.4769 13.5742 27.0657 12.5647C27.36 12.0602 27.5878 11.5847 27.7441 11.1649C27.8945 10.7609 28 10.3527 28 10C28 9.6473 27.8945 9.2391 27.7441 8.83511C27.5878 8.41527 27.36 7.93979 27.0657 7.43529C26.4769 6.4258 25.6028 5.2675 24.4444 4.17045C22.1231 1.97216 18.6366 0 14 0ZM18.1202 9.99993C18.1202 12.3778 16.2755 14.3055 14 14.3055C11.7244 14.3055 9.87973 12.3778 9.87973 9.99993C9.87973 7.62204 11.7244 5.69437 14 5.69437C16.2755 5.69437 18.1202 7.62204 18.1202 9.99993ZM19.538 9.99993C19.538 13.196 17.0585 15.787 14 15.787C10.9414 15.787 8.46201 13.196 8.46201 9.99993C8.46201 6.80384 10.9414 4.21289 14 4.21289C17.0585 4.21289 19.538 6.80384 19.538 9.99993Z" fill="#1F2124"/>
</svg>