<svg width="22" height="22" viewBox="0 0 22 22" fill="none" xmlns="http://www.w3.org/2000/svg">
<path d="M12.366 19.4625C12.3015 19.5266 12.2367 19.5911 12.1716 19.6559C12.171 19.6564 12.1705 19.6569 12.17 19.6574L11.0001 20.8009L9.82999 19.6574C9.8295 19.6569 9.82901 19.6564 9.82852 19.6559C9.76212 19.5899 9.69602 19.5242 9.63023 19.4587C7.00726 16.8501 4.86445 14.719 3.36073 12.7167C1.8263 10.6735 1 8.81815 1 6.79447C1 3.48135 3.33573 1 6.27477 1C7.94364 1 9.53544 1.83258 10.6051 3.20997L11 3.71853L11.3949 3.20993C12.4643 1.8326 14.0561 1 15.7252 1C18.6645 1 21 3.48119 21 6.79447C21 8.81813 20.1737 10.6736 18.6393 12.7169C17.1349 14.7202 14.9907 16.8524 12.366 19.4625Z" stroke="#E84A22"/>
</svg>