<svg width="24" height="24" viewBox="0 0 24 24" fill="none" xmlns="http://www.w3.org/2000/svg">
<path fill-rule="evenodd" clip-rule="evenodd" d="M11.6 4.00983C11.7325 4.0033 11.8659 4 12 4C12.1341 4 12.2675 4.0033 12.4 4.00983C16.4999 4.21171 19.7883 7.50007 19.9902 11.6C19.9967 11.7325 20 11.8659 20 12C20 12.1341 19.9967 12.2675 19.9902 12.4C19.7883 16.4999 16.4999 19.7883 12.4 19.9902C12.2675 19.9967 12.1341 20 12 20C11.8659 20 11.7325 19.9967 11.6 19.9902C7.50007 19.7883 4.21171 16.4999 4.00983 12.4C4.0033 12.2675 4 12.1341 4 12C4 11.8659 4.0033 11.7325 4.00983 11.6C4.21171 7.50007 7.50007 4.21171 11.6 4.00983ZM14.3289 18.815C17.0422 17.888 19.0256 15.3864 19.1891 12.4H16.439C16.3647 15.1138 15.5392 17.4721 14.3289 18.815ZM15.6387 12.4C15.5827 14.3353 15.1235 16.0441 14.4434 17.2683C13.8226 18.3857 13.0932 18.9858 12.4 19.1518V12.4H15.6387ZM16.439 11.6H19.1891C19.0256 8.61365 17.0422 6.11196 14.3289 5.185C15.5392 6.52791 16.3647 8.88616 16.439 11.6ZM12.4 4.84821C13.0932 5.01422 13.8226 5.61434 14.4434 6.73166C15.1235 7.95588 15.5827 9.66473 15.6387 11.6H12.4V4.84821ZM9.67106 5.185C6.95784 6.11196 4.97445 8.61365 4.81092 11.6H7.56101C7.63526 8.88616 8.46078 6.52791 9.67106 5.185ZM8.36133 11.6C8.41731 9.66473 8.87651 7.95588 9.55663 6.73166C10.1774 5.61434 10.9068 5.01422 11.6 4.84821V11.6H8.36133ZM8.36133 12.4H11.6V19.1518C10.9068 18.9858 10.1774 18.3857 9.55663 17.2683C8.87651 16.0441 8.41731 14.3353 8.36133 12.4ZM7.56101 12.4C7.63526 15.1138 8.46078 17.4721 9.67106 18.815C6.95784 17.888 4.97445 15.3864 4.81092 12.4H7.56101Z" fill="#E84A22"/>
</svg>