<svg width="32" height="33" viewBox="0 0 32 33" fill="none" xmlns="http://www.w3.org/2000/svg">
<g clip-path="url(#clip0_331_22576)">
<path fill-rule="evenodd" clip-rule="evenodd" d="M1.15663 16.2734C1.15663 8.07582 7.80238 1.43006 16 1.43006C24.198 1.43006 30.8434 8.07581 30.8434 16.2734C30.8434 24.4714 24.1976 31.1168 16 31.1168C7.80238 31.1168 1.15663 24.4711 1.15663 16.2734ZM16 0.273438C7.1636 0.273438 0 7.43703 0 16.2734C0 25.1098 7.1636 32.2734 16 32.2734C24.8364 32.2734 32 25.1102 32 16.2734C32 7.43704 24.8368 0.273438 16 0.273438ZM8.91815 16.5354C9.78722 16.5354 10.4918 15.7134 10.4918 14.6995C10.4918 13.6853 9.78722 12.8633 8.91815 12.8633C8.04907 12.8633 7.34427 13.6853 7.34427 14.6995C7.34427 15.7134 8.04907 16.5354 8.91815 16.5354ZM25.1803 14.6995C25.1803 15.7134 24.3583 16.5354 23.3443 16.5354C22.3303 16.5354 21.5082 15.7134 21.5082 14.6995C21.5082 13.6853 22.3303 12.8633 23.3443 12.8633C24.3583 12.8633 25.1803 13.6853 25.1803 14.6995ZM11.5 21.7734V22.7734H20.5V21.7734H11.5Z" fill="#E9B80C"/>
</g>
<defs>
<clipPath id="clip0_331_22576">
<rect width="32" height="32" fill="white" transform="translate(0 0.273438)"/>
</clipPath>
</defs>
</svg>