<svg width="16" height="22" viewBox="0 0 16 22" fill="none" xmlns="http://www.w3.org/2000/svg">
<path fill-rule="evenodd" clip-rule="evenodd" d="M5.31148 1.53458L7.28061 5.1413C7.58837 5.64749 7.40369 6.34359 6.91139 6.65988L6.23443 7.03953C5.0037 7.79884 5.12676 8.68469 5.68052 9.69708L8.20356 14.1265C8.75746 15.1389 9.49587 15.7717 10.7266 15.0124L11.4036 14.6327C11.8958 14.3162 12.5728 14.5061 12.8804 15.0124L14.8495 18.6191C15.1573 19.1253 14.9726 19.8214 14.4803 20.0745C12.6343 21.2134 10.6033 21.4665 8.57278 19.8846C6.1728 18.0495 1.43462 9.5071 1.0654 6.53308C0.696176 3.93875 1.9269 2.23008 3.8346 1.1547C4.32688 0.838256 5.00385 1.02815 5.31145 1.53436L5.31148 1.53458Z" stroke="#1F2124" stroke-width="0.8"/>
</svg>
