<svg width="24" height="24" viewBox="0 0 24 24" fill="none" xmlns="http://www.w3.org/2000/svg">
<mask id="path-1-inside-1_828_6983" fill="white">
<path d="M12 2C8.68629 2 6 4.47059 6 8.79412C6 13.1176 12 22 12 22C12 22 18 13.1176 18 8.79412C18 4.47059 15.3137 2 12 2Z"/>
</mask>
<path d="M12 22L11.3371 22.4478L12 23.4292L12.6629 22.4478L12 22ZM6.8 8.79412C6.8 6.80038 7.41656 5.30887 8.34097 4.32291C9.26463 3.33774 10.5478 2.8 12 2.8V1.2C10.1385 1.2 8.42166 1.89755 7.17375 3.22856C5.92658 4.55877 5.2 6.46432 5.2 8.79412H6.8ZM12 2.8C13.4522 2.8 14.7354 3.33774 15.659 4.32291C16.5834 5.30887 17.2 6.80038 17.2 8.79412H18.8C18.8 6.46432 18.0734 4.55877 16.8263 3.22856C15.5783 1.89755 13.8615 1.2 12 1.2V2.8ZM5.2 8.79412C5.2 10.0283 5.62036 11.5076 6.19229 12.9725C6.77149 14.456 7.53841 16.0039 8.29704 17.4003C9.05692 18.799 9.81571 20.0589 10.384 20.9685C10.6684 21.4237 10.9057 21.792 11.0723 22.0472C11.1556 22.1748 11.2213 22.2742 11.2664 22.342C11.2889 22.376 11.3063 22.402 11.3182 22.4198C11.3242 22.4287 11.3288 22.4355 11.3319 22.4402C11.3335 22.4425 11.3347 22.4443 11.3356 22.4456C11.336 22.4462 11.3364 22.4467 11.3366 22.4471C11.3367 22.4473 11.3368 22.4475 11.3369 22.4476C11.337 22.4477 11.3371 22.4478 12 22C12.6629 21.5522 12.663 21.5522 12.663 21.5522C12.6629 21.5522 12.6629 21.5522 12.6629 21.5521C12.6627 21.5519 12.6625 21.5516 12.6622 21.5512C12.6616 21.5503 12.6607 21.5489 12.6594 21.5469C12.6568 21.543 12.6527 21.537 12.6473 21.529C12.6365 21.5129 12.6203 21.4885 12.5989 21.4563C12.5561 21.392 12.4928 21.2963 12.4121 21.1726C12.2506 20.9251 12.0191 20.5658 11.741 20.1207C11.1843 19.2297 10.4431 17.9988 9.70296 16.6365C8.96159 15.2719 8.22851 13.7885 7.68271 12.3906C7.12964 10.974 6.8 9.72169 6.8 8.79412H5.2ZM17.2 8.79412C17.2 9.72169 16.8704 10.974 16.3173 12.3906C15.7715 13.7885 15.0384 15.2719 14.297 16.6365C13.5569 17.9988 12.8157 19.2297 12.259 20.1207C11.9809 20.5658 11.7494 20.9251 11.5879 21.1726C11.5072 21.2963 11.4439 21.392 11.4011 21.4563C11.3797 21.4885 11.3635 21.5129 11.3527 21.529C11.3473 21.537 11.3432 21.543 11.3406 21.5469C11.3393 21.5489 11.3384 21.5503 11.3378 21.5512C11.3375 21.5516 11.3373 21.5519 11.3371 21.5521C11.3371 21.5522 11.3371 21.5522 11.337 21.5522C11.337 21.5522 11.3371 21.5522 12 22C12.6629 22.4478 12.663 22.4477 12.6631 22.4476C12.6632 22.4475 12.6633 22.4473 12.6634 22.4471C12.6636 22.4467 12.664 22.4462 12.6644 22.4456C12.6653 22.4443 12.6665 22.4425 12.6681 22.4402C12.6712 22.4355 12.6758 22.4287 12.6818 22.4198C12.6937 22.402 12.7111 22.376 12.7336 22.342C12.7787 22.2742 12.8444 22.1748 12.9277 22.0472C13.0943 21.792 13.3316 21.4237 13.616 20.9685C14.1843 20.0589 14.9431 18.799 15.703 17.4003C16.4616 16.0039 17.2285 14.456 17.8077 12.9725C18.3796 11.5076 18.8 10.0283 18.8 8.79412H17.2Z" fill="#E84A22" mask="url(#path-1-inside-1_828_6983)"/>
<circle cx="12" cy="8" r="3.6" stroke="#E84A22" stroke-width="0.8"/>
</svg>