<svg width="24" height="24" viewBox="0 0 24 24" fill="none" xmlns="http://www.w3.org/2000/svg">
<path fill-rule="evenodd" clip-rule="evenodd" d="M12.0001 1.59961H8.00012V2.39961H10.948L2.73438 9.70065L3.26587 10.2986L11.6001 2.89035V5.99961H12.4001V1.99961V1.59961H12.0001ZM16.0001 5.59961H15.6001V5.99961V9.59961H12.0001H11.6001V9.99961V12.5996H8.00012H7.60012V12.9996V15.5996H4.00012H3.60012V15.9996V19.9996V20.3996H4.00012H8.00012H12.0001H16.0001H20.0001H20.4001V19.9996V5.99961V5.59961H20.0001H16.0001ZM12.4001 10.3996H15.6001V19.5996H12.4001V12.9996V10.3996ZM19.6001 19.5996H16.4001V9.99961V6.39961H19.6001V19.5996ZM11.6001 13.3996V19.5996H8.40012V15.9996V13.3996H11.6001ZM7.60012 16.3996V19.5996H4.40012V16.3996H7.60012Z" fill="#E84A22"/>
</svg>