<svg width="24" height="24" viewBox="0 0 24 24" fill="none" xmlns="http://www.w3.org/2000/svg">
<path fill-rule="evenodd" clip-rule="evenodd" d="M8.42051 4.69352C7.25322 5.25268 6.70042 5.94745 6.70042 6.5847C6.70042 7.22194 7.25322 7.91672 8.42051 8.47587C9.55873 9.02109 11.1593 9.3694 12.9489 9.3694C14.7385 9.3694 16.339 9.02109 17.4772 8.47587C18.6445 7.91672 19.1973 7.22194 19.1973 6.5847C19.1973 5.94745 18.6445 5.25268 17.4772 4.69352C16.339 4.1483 14.7385 3.8 12.9489 3.8C11.1593 3.8 9.55873 4.1483 8.42051 4.69352ZM19.1973 8.27453C18.8278 8.63366 18.3531 8.94337 17.8228 9.19737C16.5548 9.80478 14.8311 10.1694 12.9489 10.1694C11.0666 10.1694 9.34295 9.80478 8.0749 9.19737C7.54464 8.94337 7.06997 8.63366 6.70042 8.27453V9.31444C6.70042 9.95169 7.25322 10.6465 8.42051 11.2056C9.55873 11.7508 11.1593 12.0991 12.9489 12.0991C14.7385 12.0991 16.339 11.7508 17.4772 11.2056C18.6445 10.6465 19.1973 9.95169 19.1973 9.31444V8.27453ZM19.9973 6.5847V9.31444C19.9973 10.3517 19.1972 11.1974 18.0969 11.7881V13.2103C19.1959 13.8002 19.9973 14.6462 19.9973 15.684V18.4137C19.9973 19.5354 19.0618 20.4329 17.8228 21.0264C16.5548 21.6338 14.8311 21.9984 12.9489 21.9984C11.0666 21.9984 9.34295 21.6338 8.0749 21.0264C6.83594 20.4329 5.90042 19.5354 5.90042 18.4137V16.3381C4.80012 15.7474 4 14.9017 4 13.8644V11.1347C4 10.0969 4.80139 9.2509 5.90042 8.66097V6.5847C5.90042 5.46308 6.83594 4.56551 8.0749 3.97203C9.34295 3.36462 11.0666 3 12.9489 3C14.8311 3 16.5548 3.36462 17.8228 3.97203C19.0618 4.56551 19.9973 5.46308 19.9973 6.5847ZM7.14335 16.8646C7.42394 17.1561 7.84158 17.433 8.40685 17.6781C9.54605 18.1721 11.1505 18.4687 12.9489 18.4687C14.7385 18.4687 16.339 18.1204 17.4772 17.5752C18.6445 17.016 19.1973 16.3212 19.1973 15.684C19.1973 15.1688 18.8364 14.6159 18.0796 14.127C17.9466 15.1265 17.0631 15.9307 15.9224 16.4771C14.6544 17.0845 12.9307 17.4491 11.0484 17.4491C9.60993 17.4491 8.26403 17.2362 7.14335 16.8646ZM12.9489 12.8991C14.4906 12.8991 15.926 12.6545 17.0917 12.2322C16.8422 12.6052 16.3587 12.9513 15.606 13.2407C14.465 13.6794 12.8565 13.9194 11.0484 13.9194C9.25884 13.9194 7.6583 13.5711 6.52009 13.0259C5.35279 12.4667 4.8 11.7719 4.8 11.1347C4.8 10.6195 5.16098 10.0666 5.91784 9.57759C6.05105 10.5768 6.93441 11.3808 8.0749 11.9271C9.34295 12.5345 11.0666 12.8991 12.9489 12.8991ZM4.8 12.8245V13.8644C4.8 14.5017 5.35279 15.1965 6.52009 15.7556C7.6583 16.3008 9.25884 16.6491 11.0484 16.6491C12.838 16.6491 14.4386 16.3008 15.5768 15.7556C16.7441 15.1965 17.2969 14.5017 17.2969 13.8644V13.1898C16.9181 13.5166 16.4308 13.7807 15.8931 13.9874C14.6279 14.4739 12.9123 14.7194 11.0484 14.7194C9.1662 14.7194 7.44253 14.3548 6.17448 13.7474C5.64422 13.4934 5.16954 13.1836 4.8 12.8245ZM17.8228 18.2967C18.3531 18.0427 18.8278 17.733 19.1973 17.3738V18.4137C19.1973 19.051 18.6445 19.7458 17.4772 20.3049C16.339 20.8501 14.7385 21.1984 12.9489 21.1984C11.1593 21.1984 9.55873 20.8501 8.42051 20.3049C7.25322 19.7458 6.70042 19.051 6.70042 18.4137V17.5489C7.07422 17.8925 7.5547 18.1806 8.08857 18.4121C9.35563 18.9615 11.0754 19.2687 12.9489 19.2687C14.8311 19.2687 16.5548 18.9041 17.8228 18.2967Z" fill="#E84A22"/>
</svg>