<svg width="124" height="141" viewBox="0 0 124 141" fill="none" xmlns="http://www.w3.org/2000/svg">
<path d="M62.2131 0.274414C60.6148 0.276584 59.0826 0.91244 57.952 2.04308C56.8225 3.17263 56.1866 4.70474 56.1844 6.30307C56.1833 7.90354 56.817 9.4389 57.9477 10.5717C59.0783 11.7045 60.6126 12.3414 62.2129 12.3436C63.8156 12.3447 65.3532 11.7088 66.486 10.576C67.6188 9.44212 68.2547 7.90565 68.2536 6.30296C68.2514 4.70249 67.6145 3.16824 66.4817 2.03769C65.3489 0.908135 63.8135 0.273358 62.2131 0.274442L62.2131 0.274414ZM62.2131 14.3977C60.2871 14.3977 58.3851 14.4932 56.5067 14.6831C54.6296 14.873 52.7806 15.1649 50.9609 15.537C49.1413 15.9114 47.352 16.366 45.6018 16.914V16.9151C43.9308 17.4348 42.9965 19.21 43.5163 20.882C44.036 22.553 45.8123 23.4872 47.4832 22.9675C49.0338 22.4857 50.6115 22.0701 52.2238 21.7435C53.8351 21.4137 55.4843 21.1663 57.1498 21.0003C57.7727 20.9373 58.415 20.9373 59.0433 20.8994V26.903L49.8214 38.5879H49.8235C49.281 39.2455 49.0271 40.094 49.1182 40.9404C49.2094 41.7878 49.638 42.5625 50.3075 43.091C50.977 43.6183 51.8298 43.8538 52.6751 43.7453C53.5203 43.6357 54.2853 43.1908 54.7996 42.5116L62.2138 33.1171L69.6279 42.5116C70.1412 43.1908 70.9072 43.6357 71.7525 43.7453C72.5977 43.8538 73.4506 43.6183 74.1201 43.091C74.7896 42.5626 75.2171 41.7878 75.3082 40.9404C75.3994 40.094 75.1454 39.2455 74.604 38.5879L65.3821 26.903V20.8994C66.0157 20.9623 66.6624 20.9623 67.2885 21.0003C68.9552 21.1717 70.5916 21.4126 72.2027 21.7435C73.8151 22.0734 75.3927 22.4868 76.9432 22.9697V22.9686C78.6142 23.4851 80.3863 22.5508 80.906 20.882C81.4247 19.2121 80.4937 17.4381 78.8248 16.9162C77.0746 16.3715 75.2973 15.9147 73.4776 15.5425C71.658 15.1681 69.7971 14.8784 67.9199 14.6886C66.0416 14.4987 64.1396 14.4032 62.2135 14.4032L62.2131 14.3977ZM26.5271 28.3355V28.3366C25.7035 28.3268 24.9093 28.6382 24.3114 29.2035C22.9604 30.447 21.6692 31.7632 20.4366 33.1521C19.204 34.5421 18.0256 36.0038 16.9211 37.5335C15.8165 39.0645 14.777 40.6682 13.8144 42.336C12.852 44.0038 11.9894 45.7007 11.2146 47.4238C10.4409 49.1447 9.75953 50.896 9.1725 52.6593C8.59089 54.4171 8.09178 56.1924 7.68703 57.9826C7.49823 58.8051 7.64363 59.6688 8.09284 60.3828C8.54206 61.0968 9.25711 61.6024 10.0796 61.7891C10.9021 61.9746 11.7647 61.8249 12.4776 61.3735C13.1905 60.9221 13.6929 60.2049 13.8762 59.3813C14.2332 57.8014 14.6716 56.2279 15.1881 54.6646C15.7068 53.1086 16.3101 51.5602 16.9958 50.0346C17.253 49.4639 17.5807 48.9062 17.8628 48.3397L23.0614 51.3345L28.5692 65.1733V65.1744C29.218 66.8009 31.0637 67.5941 32.6903 66.9442C34.3179 66.2953 35.11 64.4496 34.4611 62.8219L30.0178 51.7064L41.8764 49.9855H41.8753C43.5289 49.7728 44.7355 48.3145 44.6346 46.6499C44.5326 44.9854 43.1589 43.6844 41.4913 43.6736C41.3133 43.679 41.1343 43.7007 40.9596 43.7365L26.2299 45.8773L21.0313 42.8826C21.3828 42.3564 21.7029 41.7954 22.0708 41.2854C23.0506 39.9269 24.0868 38.6291 25.1774 37.3987C26.269 36.1672 27.4138 35.0051 28.6063 33.9082C29.5829 33.0369 29.9225 31.6545 29.4624 30.4296C29.0023 29.2047 27.8359 28.3875 26.5263 28.3755L26.5271 28.3355ZM97.813 28.3355V28.3366C96.5262 28.3886 95.3988 29.2155 94.9603 30.4275C94.523 31.6384 94.8626 32.9947 95.8197 33.8575C97.0122 34.9588 98.1634 36.1274 99.2605 37.36C100.352 38.5915 101.387 39.8893 102.367 41.2466C102.734 41.7533 103.045 42.3176 103.395 42.8438L98.2081 45.8386L83.4653 43.6966L83.4664 43.6977C83.2591 43.6554 83.0476 43.6348 82.836 43.6348C81.1823 43.6923 79.8521 45.0128 79.7815 46.6653C79.7099 48.3179 80.9209 49.747 82.5638 49.9476L94.4096 51.6685L89.9782 62.784C89.6234 63.5718 89.606 64.4702 89.9294 65.271C90.2527 66.0718 90.8885 66.7065 91.6915 67.0266C92.4934 67.3478 93.3918 67.3272 94.1774 66.9702C94.9641 66.6132 95.5717 65.9502 95.8582 65.1353L101.367 51.3095L106.566 48.3137C106.846 48.8779 107.175 49.4281 107.433 49.9966C108.119 51.5244 108.72 53.0783 109.24 54.6386C109.761 56.2 110.207 57.7711 110.565 59.3544L110.563 59.3555C110.72 60.204 111.215 60.9516 111.936 61.4258C112.656 61.901 113.538 62.0616 114.38 61.8707C115.221 61.6808 115.948 61.1556 116.394 60.4167C116.839 59.6777 116.965 58.7901 116.74 57.9568C116.337 56.1686 115.842 54.3968 115.255 52.6346C114.668 50.8724 113.986 49.1202 113.213 47.3979C112.439 45.6757 111.576 43.9788 110.613 42.3113C109.65 40.6435 108.611 39.0399 107.506 37.5088C106.402 35.9778 105.235 34.5163 104.004 33.1263L104.003 33.1252C103.999 33.1263 103.995 33.1263 103.991 33.1263C102.76 31.7439 101.477 30.4223 100.129 29.1777C99.5063 28.5874 98.6708 28.2749 97.8136 28.3107L97.813 28.3355ZM6.53545 32.2602V32.2613C4.48035 32.3535 2.61407 33.4874 1.58435 35.269C0.784656 36.6558 0.568744 38.304 0.984298 39.8501C1.39988 41.3964 2.41224 42.7138 3.80012 43.5124C5.18576 44.3131 6.83178 44.5312 8.37789 44.1178C9.92411 43.7044 11.2423 42.6942 12.0432 41.3098C12.8429 39.922 13.0588 38.2748 12.6432 36.7287C12.2276 35.1825 11.2153 33.8642 9.82739 33.0654C8.83022 32.4881 7.68765 32.2092 6.53518 32.2613L6.53545 32.2602ZM117.471 32.2602V32.2613C116.461 32.2841 115.474 32.5597 114.599 33.0631C113.214 33.865 112.203 35.1833 111.791 36.7284C111.378 38.2746 111.595 39.9206 112.395 41.3062C113.196 42.6918 114.516 43.702 116.061 44.1153C117.607 44.5287 119.254 44.3106 120.64 43.5099C122.024 42.7091 123.034 41.3896 123.448 39.8446C123.861 38.2984 123.643 36.6513 122.842 35.2657C122.3 34.3282 121.514 33.5546 120.569 33.0251C119.624 32.4966 118.553 32.2308 117.47 32.2579L117.471 32.2602ZM92.925 73.3573V73.3584C91.8595 73.3497 90.8623 73.8782 90.2688 74.7625C89.6763 75.6468 89.5667 76.7699 89.979 77.7531L94.4104 88.8686L82.5646 90.5895H82.5635C81.7259 90.7013 80.9663 91.1451 80.4563 91.82C79.9464 92.4949 79.7272 93.3456 79.8476 94.1832C79.9681 95.0209 80.4184 95.775 81.0987 96.2785C81.7779 96.7831 82.6308 96.9936 83.4674 96.8644L98.2101 94.7225L103.397 97.7184C103.048 98.2446 102.736 98.8067 102.369 99.3145C101.389 100.673 100.353 101.971 99.2626 103.201C98.171 104.433 97.0262 105.603 95.8337 106.704V106.705C95.1783 107.265 94.7779 108.066 94.7269 108.927C94.6759 109.787 94.9765 110.632 95.5613 111.265C96.1462 111.899 96.9632 112.267 97.8248 112.284C98.6863 112.303 99.5186 111.968 100.128 111.36C101.476 110.115 102.771 108.8 104.003 107.411C105.236 106.021 106.402 104.559 107.506 103.03C108.61 101.498 109.65 99.895 110.612 98.2272C111.575 96.5595 112.437 94.8625 113.212 93.1395C113.986 91.4186 114.667 89.665 115.254 87.9039C115.836 86.1461 116.335 84.3698 116.74 82.5806H116.741C116.968 81.6399 116.752 80.6481 116.156 79.8864C115.561 79.1236 114.65 78.6754 113.683 78.6689C112.179 78.6592 110.875 79.7095 110.564 81.1809C110.207 82.764 109.758 84.3428 109.239 85.9095C108.719 87.4666 108.117 89.015 107.431 90.5395C107.175 91.1102 106.844 91.6582 106.564 92.2224L101.365 89.2266L95.8577 75.4008H95.8588C95.3943 74.1812 94.2301 73.3695 92.9249 73.3587L92.925 73.3573ZM31.4168 73.3573V73.3584C30.1462 73.4029 29.0253 74.2015 28.5696 75.3875L23.0607 89.2264L17.8621 92.2222C17.5811 91.6514 17.2534 91.0991 16.9951 90.5262C16.3083 88.9984 15.7082 87.4446 15.1874 85.8843C14.6666 84.3229 14.2304 82.7496 13.8756 81.1685H13.8766C13.5576 79.6591 12.1991 78.599 10.6583 78.6554C9.70887 78.6902 8.82562 79.147 8.24945 79.9022C7.67437 80.6574 7.4682 81.6307 7.6874 82.5552C8.08995 84.3466 8.58584 86.1282 9.17286 87.8904C9.75989 89.6527 10.4413 91.4049 11.215 93.1271C11.9886 94.8491 12.8632 96.5463 13.8267 98.2138C14.7892 99.8815 15.8167 101.485 16.9214 103.016C18.025 104.546 19.2033 106.009 20.437 107.398C21.6685 108.78 22.9641 110.102 24.3117 111.346V111.347C24.9215 111.956 25.7537 112.29 26.6153 112.273C27.4769 112.256 28.295 111.888 28.8798 111.254C29.4636 110.62 29.7652 109.776 29.7142 108.915C29.6622 108.054 29.2629 107.252 28.6064 106.692C27.415 105.591 26.2626 104.422 25.1656 103.19H25.1786C24.0881 101.96 23.0519 100.662 22.0719 99.3032C21.7041 98.7965 21.384 98.2333 21.0324 97.706L26.231 94.7113L40.9607 96.8532L40.9596 96.8521C41.794 96.978 42.6437 96.7664 43.3218 96.2629C43.9989 95.7605 44.4481 95.0086 44.5696 94.1742C44.6923 93.3397 44.4763 92.4912 43.9707 91.8152C43.4651 91.1403 42.7109 90.6943 41.8765 90.5761L30.0179 88.8552L34.4613 77.7396C34.8758 76.7425 34.7531 75.6031 34.1368 74.7155C33.5205 73.829 32.4951 73.3168 31.4165 73.3581L31.4168 73.3573ZM6.67295 96.2198L6.67186 96.2209C5.66276 96.2437 4.67534 96.5193 3.79965 97.0227C2.41293 97.8224 1.39949 99.1397 0.983824 100.686C0.568241 102.232 0.784172 103.881 1.58388 105.267C2.38574 106.653 3.70409 107.663 5.25026 108.076C6.79539 108.489 8.44248 108.272 9.82803 107.471C11.2147 106.671 12.2282 105.354 12.6439 103.808C13.0594 102.261 12.8435 100.613 12.0438 99.2264C11.5002 98.2889 10.7157 97.5153 9.7695 96.9858C8.82442 96.4573 7.75453 96.1915 6.67173 96.2186L6.67295 96.2198ZM117.337 96.2198L117.336 96.2209C115.285 96.3185 113.424 97.4513 112.397 99.2286C111.597 100.614 111.379 102.261 111.792 103.806C112.205 105.353 113.216 106.671 114.6 107.473C115.986 108.274 117.633 108.491 119.178 108.078C120.724 107.665 122.042 106.655 122.844 105.269C123.645 103.885 123.863 102.237 123.45 100.691C123.036 99.1451 122.026 97.8269 120.641 97.0261C119.639 96.4467 118.492 96.1667 117.336 96.221L117.337 96.2198ZM72.0312 96.7775L72.0301 96.7786C71.0806 96.8177 70.1996 97.2821 69.6288 98.0416L62.2147 107.437L54.8005 98.0416C54.2102 97.2745 53.3031 96.8188 52.3363 96.8036C51.1069 96.7851 49.9774 97.4796 49.4391 98.5853C48.8998 99.6909 49.0507 101.009 49.8243 101.965L59.0462 113.65V119.654C58.4169 119.59 57.7756 119.59 57.1528 119.553C55.4872 119.381 53.8378 119.141 52.2267 118.81C50.6143 118.48 49.0334 118.067 47.4861 117.584L47.484 117.585C47.1845 117.486 46.872 117.433 46.5563 117.426C44.9623 117.387 43.5874 118.538 43.3454 120.114C43.1045 121.69 44.0703 123.2 45.6035 123.64C47.3558 124.185 49.144 124.642 50.9637 125.014C52.7834 125.388 54.6312 125.677 56.5095 125.868C58.3878 126.058 60.2898 126.153 62.2159 126.153C64.1419 126.154 66.044 126.059 67.9223 125.868C69.7995 125.678 71.6604 125.386 73.4801 125.014C75.2921 124.64 77.0748 124.185 78.8273 123.64H78.8262C80.4983 123.121 81.4325 121.344 80.9128 119.673C80.393 118.001 78.6168 117.068 76.9447 117.587C75.3963 118.069 73.8208 118.477 72.2042 118.812C70.5928 119.142 68.9567 119.389 67.29 119.555C66.6639 119.619 66.0172 119.619 65.3836 119.656V113.652L74.6055 101.967C75.403 101.003 75.5592 99.6595 75.0026 98.5374C74.446 97.4165 73.2817 96.7275 72.0307 96.7807L72.0312 96.7775ZM62.2156 128.205L62.2145 128.206C60.6162 128.207 59.084 128.843 57.9534 129.974C56.8239 131.103 56.188 132.637 56.1858 134.234C56.1848 135.834 56.8184 137.37 57.9491 138.502C59.0798 139.635 60.614 140.273 62.2144 140.274C63.817 140.277 65.3535 139.641 66.4874 138.507C67.6202 137.374 68.2561 135.836 68.255 134.234C68.2528 132.634 67.6159 131.1 66.4831 129.969C65.3503 128.839 63.8149 128.204 62.2145 128.206L62.2156 128.205Z" fill="#E84A22"/>
</svg>