<svg width="217" height="30" viewBox="0 0 217 30" fill="none" xmlns="http://www.w3.org/2000/svg">
<path d="M1.296 22H6.672V9.64L13.704 22H16.704L23.736 9.64V22H29.256V4.144H21.6L15.408 15.256L9.24 4.144H1.296V22ZM50.3385 17.464V17.44H45.0585C44.9865 17.776 44.4105 19.096 40.8585 19.096H40.8345C37.8825 19.096 36.5865 18.088 36.2745 16.576H50.4105V15.688C50.4105 12.544 48.9945 8.728 41.4345 8.728H39.9705C32.9865 8.728 31.0185 11.92 31.0185 15.232V15.76C31.0185 19.144 33.2265 22.36 40.1145 22.36H41.4825C49.1865 22.36 50.3385 19.216 50.3385 17.464ZM40.6665 11.728H40.6905C43.3785 11.728 44.6745 12.544 45.0105 13.912H36.3705C36.7785 12.544 37.9785 11.728 40.6665 11.728ZM66.0759 4.144V10.816C65.4759 10.288 63.6279 8.776 59.5959 8.776H59.2119C53.4279 8.776 51.2919 11.752 51.2919 15.208V15.664C51.2919 19.288 53.6919 22.312 59.4279 22.312H59.7399C63.8919 22.312 65.7639 20.512 66.1239 20.032V22H71.4519V4.144H66.0759ZM66.0759 15.568C66.0759 17.224 64.4199 18.904 61.2279 18.904H61.1079C57.9639 18.904 56.7639 17.128 56.7639 15.568V15.472C56.7639 13.792 57.6999 12.16 61.0599 12.16H61.1799C64.3479 12.16 66.0759 13.792 66.0759 15.472V15.568ZM91.4996 9.088H86.1236L82.0916 17.92L77.9396 9.088H72.1796L78.7556 22H85.1876L91.4996 9.088ZM97.5799 4.144H92.2279V7.84H97.5799V4.144ZM97.5799 9.088H92.2279V22H97.5799V9.088ZM116.769 17.92V17.776C116.769 15.208 115.545 13.84 109.569 13.72L107.265 13.672C105.009 13.624 104.553 13.216 104.553 12.64V12.592C104.553 11.968 105.057 11.632 107.625 11.632H107.649C110.505 11.632 110.793 12.472 110.841 12.952H116.289V12.784C116.289 10.768 114.753 8.728 108.201 8.728H107.241C100.161 8.728 99.081 10.792 99.081 12.76V12.904C99.081 14.8 100.425 16.792 106.041 16.936L108.345 16.984C110.865 17.032 111.177 17.464 111.177 18.112V18.16C111.177 18.784 110.817 19.384 107.841 19.384H107.793C104.649 19.384 104.505 18.088 104.481 17.632H98.961V17.776C98.961 19.432 99.729 22.36 107.265 22.36H108.249C115.377 22.36 116.769 20.296 116.769 17.92ZM126.932 22.36H128.612C136.604 22.36 137.852 18.664 137.852 15.688V15.256C137.852 12.328 136.46 8.728 128.612 8.728H126.908C119.42 8.728 117.644 12.28 117.644 15.256V15.688C117.644 18.688 119.444 22.36 126.932 22.36ZM123.116 15.544V15.424C123.116 13.792 124.1 12.16 127.772 12.16H127.796C131.396 12.16 132.428 13.816 132.428 15.424V15.544C132.428 17.056 131.444 18.88 127.772 18.88C124.124 18.88 123.116 17.056 123.116 15.544ZM144.713 15.328C144.713 13.648 145.697 12.208 147.497 12.208H147.521C149.537 12.208 150.257 13.624 150.257 15.304H155.417V14.56C155.417 11.248 153.905 8.8 150.161 8.8H149.897C146.657 8.8 145.145 10.648 144.665 11.368V9.088H139.361V22H144.713V15.328Z" fill="#1F2124"/>
<g filter="url(#filter0_b_721_939)">
<rect x="164" y="4" width="53" height="22" rx="10" fill="#1F2124"/>
</g>
<path d="M175.36 8.8H176.416V13.12H176.448C177.013 12.2987 177.872 11.888 179.024 11.888C179.493 11.888 179.925 11.9733 180.32 12.144C180.715 12.304 181.051 12.5493 181.328 12.88C181.616 13.2 181.84 13.6 182 14.08C182.16 14.56 182.24 15.1093 182.24 15.728V16.272C182.24 16.8907 182.16 17.44 182 17.92C181.84 18.3893 181.616 18.7893 181.328 19.12C181.04 19.44 180.699 19.6853 180.304 19.856C179.909 20.0267 179.483 20.112 179.024 20.112C178.448 20.112 177.947 20.0107 177.52 19.808C177.093 19.5947 176.704 19.2587 176.352 18.8H176.32L176.192 20H175.36V8.8ZM178.784 19.152C179.488 19.152 180.059 18.9173 180.496 18.448C180.933 17.968 181.152 17.2427 181.152 16.272V15.728C181.152 14.7787 180.928 14.064 180.48 13.584C180.043 13.0933 179.477 12.848 178.784 12.848C178.08 12.848 177.509 13.088 177.072 13.568C176.635 14.0373 176.416 14.7573 176.416 15.728V16.272C176.416 17.2213 176.635 17.9413 177.072 18.432C177.52 18.912 178.091 19.152 178.784 19.152ZM187.445 20.112C186.933 20.112 186.464 20.0267 186.037 19.856C185.61 19.6853 185.248 19.44 184.949 19.12C184.65 18.7893 184.416 18.3893 184.245 17.92C184.085 17.44 184.005 16.8907 184.005 16.272V15.728C184.005 15.12 184.085 14.576 184.245 14.096C184.416 13.616 184.65 13.216 184.949 12.896C185.258 12.5653 185.621 12.3147 186.037 12.144C186.464 11.9733 186.933 11.888 187.445 11.888C187.957 11.888 188.426 11.9733 188.853 12.144C189.28 12.3147 189.642 12.5653 189.941 12.896C190.24 13.2267 190.469 13.6373 190.629 14.128C190.8 14.608 190.885 15.168 190.885 15.808V16.288H185.093C185.093 17.216 185.296 17.9253 185.701 18.416C186.106 18.9067 186.688 19.152 187.445 19.152C188.586 19.152 189.344 18.688 189.717 17.76H190.805C190.613 18.528 190.229 19.1147 189.653 19.52C189.088 19.9147 188.352 20.112 187.445 20.112ZM187.445 12.848C186.762 12.848 186.213 13.0667 185.797 13.504C185.381 13.9307 185.146 14.56 185.093 15.392H189.797C189.744 14.528 189.504 13.888 189.077 13.472C188.661 13.056 188.117 12.848 187.445 12.848ZM195.718 20C195.195 20 194.79 19.9093 194.502 19.728C194.214 19.5467 194 19.3387 193.862 19.104C193.734 18.8587 193.659 18.6187 193.638 18.384C193.616 18.1493 193.606 17.984 193.606 17.888V12.96H192.166V12H193.606V9.76H194.662V12H196.806V12.96H194.662V17.76C194.662 18.6133 195.056 19.04 195.846 19.04H196.966V20H195.718ZM201.049 20.112C200.164 20.112 199.503 19.9093 199.065 19.504C198.628 19.088 198.409 18.5173 198.409 17.792C198.409 17.0347 198.671 16.432 199.193 15.984C199.716 15.536 200.548 15.312 201.689 15.312H203.753V14.72C203.753 14.08 203.599 13.616 203.289 13.328C202.98 13.0293 202.473 12.88 201.769 12.88C201.119 12.88 200.639 12.992 200.329 13.216C200.031 13.44 199.86 13.728 199.817 14.08H198.729C198.751 13.792 198.831 13.5147 198.969 13.248C199.108 12.9813 199.3 12.7467 199.545 12.544C199.801 12.3413 200.116 12.1813 200.489 12.064C200.863 11.9467 201.289 11.888 201.769 11.888C202.804 11.888 203.567 12.128 204.057 12.608C204.559 13.0773 204.809 13.7813 204.809 14.72V20H203.977L203.849 18.64H203.817C203.497 19.12 203.097 19.488 202.617 19.744C202.148 19.9893 201.625 20.112 201.049 20.112ZM201.129 19.12C201.513 19.12 201.865 19.0613 202.185 18.944C202.505 18.816 202.783 18.6453 203.017 18.432C203.252 18.208 203.433 17.9467 203.561 17.648C203.689 17.3387 203.753 17.0027 203.753 16.64V16.208H201.769C200.948 16.208 200.361 16.352 200.009 16.64C199.668 16.928 199.497 17.312 199.497 17.792C199.497 18.1973 199.625 18.5227 199.881 18.768C200.148 19.0027 200.564 19.12 201.129 19.12Z" fill="white"/>
<defs>
<filter id="filter0_b_721_939" x="161" y="1" width="59" height="28" filterUnits="userSpaceOnUse" color-interpolation-filters="sRGB">
<feFlood flood-opacity="0" result="BackgroundImageFix"/>
<feGaussianBlur in="BackgroundImage" stdDeviation="1.5"/>
<feComposite in2="SourceAlpha" operator="in" result="effect1_backgroundBlur_721_939"/>
<feBlend mode="normal" in="SourceGraphic" in2="effect1_backgroundBlur_721_939" result="shape"/>
</filter>
</defs>
</svg>
